<svg width="16" height="16" viewBox="0 0 16 16" fill="none" xmlns="http://www.w3.org/2000/svg">
<circle cx="8" cy="8" r="7.5" stroke="white"/>
<path d="M8.09695 11.1438C7.54723 11.1417 7.07422 11.0064 6.67791 10.7379C6.28374 10.4695 5.98011 10.0806 5.76705 9.57138C5.55611 9.06214 5.4517 8.44957 5.45384 7.73366C5.45384 7.01989 5.5593 6.41158 5.77024 5.90874C5.98331 5.40589 6.28693 5.02344 6.68111 4.76136C7.07741 4.49716 7.54936 4.36506 8.09695 4.36506C8.64453 4.36506 9.11541 4.49716 9.50959 4.76136C9.9059 5.02557 10.2106 5.40909 10.4237 5.91193C10.6367 6.41264 10.7422 7.01989 10.7401 7.73366C10.7401 8.4517 10.6335 9.06534 10.4205 9.57457C10.2095 10.0838 9.90696 10.4727 9.51278 10.7411C9.11861 11.0096 8.64666 11.1438 8.09695 11.1438ZM8.09695 9.99645C8.47195 9.99645 8.77131 9.80788 8.99503 9.43075C9.21875 9.05362 9.32955 8.48793 9.32741 7.73366C9.32741 7.23722 9.27628 6.82386 9.17401 6.49361C9.07386 6.16335 8.93111 5.91513 8.74574 5.74893C8.5625 5.58274 8.34624 5.49964 8.09695 5.49964C7.72408 5.49964 7.42578 5.68608 7.20206 6.05895C6.97834 6.43182 6.86541 6.99006 6.86328 7.73366C6.86328 8.23651 6.91335 8.65625 7.01349 8.9929C7.11577 9.32741 7.25959 9.57884 7.44496 9.74716C7.63033 9.91335 7.84766 9.99645 8.09695 9.99645Z" fill="white"/>
</svg>
